<svg width="393" height="826" viewBox="0 0 393 826" fill="none" xmlns="http://www.w3.org/2000/svg">
<path d="M-89.25 485.366V348.175L69.3533 338.813L62.6683 492.326L-89.25 485.366Z" fill="#EF3D36" stroke="black" stroke-width="3.5"/>
<path d="M80.7784 493.155L87.5468 337.739L221.247 329.846L249.401 500.88L80.7784 493.155Z" fill="#FBAF41" stroke="black" stroke-width="3.5"/>
<path d="M267.914 501.728L239.443 328.772L482.25 314.439V511.547L267.914 501.728Z" fill="#8CC541" stroke="black" stroke-width="3.5"/>
<path d="M26.9088 633.4L-89.25 598.266V503.514L321.377 522.325L26.9088 633.4Z" fill="#12A89D" stroke="black" stroke-width="3.5"/>
<path d="M482.25 771.123L55.417 642.023L367.181 524.424L482.25 529.695V771.123Z" fill="#662F8E" stroke="black" stroke-width="3.5"/>
<path d="M171.09 824.25H-89.25V617.207L160.045 692.609L171.09 824.25Z" fill="#C39A6D" stroke="black" stroke-width="3.5"/>
<path d="M189.283 824.25L178.712 698.255L482.25 790.063V824.25H189.283Z" fill="#EC207C" stroke="black" stroke-width="3.5"/>
<path d="M265.045 309.1L-89.25 330.015V91.4848L35.7577 112.743L265.045 309.1Z" fill="#2A2F73" stroke="black" stroke-width="3.5"/>
<path d="M482.25 296.278L291.118 307.561L70.5353 118.658L482.25 188.673V296.278Z" fill="#C21D2E" stroke="black" stroke-width="3.5"/>
<path d="M227.702 1.75H482.25V170.284L214.083 124.68L227.702 1.75Z" fill="#FEF200" stroke="black" stroke-width="3.5"/>
<path d="M-89.25 73.0953V1.75H209.462L196.18 121.635L-89.25 73.0953Z" fill="#01AEF0" stroke="black" stroke-width="3.5"/>
<g opacity="0.12">
<circle cx="237.957" cy="93.0873" r="0.699414" transform="rotate(-1.52632 237.957 93.0873)" fill="black"/>
<circle cx="372.154" cy="89.5115" r="0.699414" transform="rotate(-1.52632 372.154 89.5115)" fill="black"/>
<circle cx="249.14" cy="92.7891" r="0.699414" transform="rotate(-1.52632 249.14 92.7891)" fill="black"/>
<circle cx="383.337" cy="89.2135" r="0.699414" transform="rotate(-1.52632 383.337 89.2135)" fill="black"/>
<circle cx="260.323" cy="92.4911" r="0.699414" transform="rotate(-1.52632 260.323 92.4911)" fill="black"/>
<circle cx="271.506" cy="92.1931" r="0.699414" transform="rotate(-1.52632 271.506 92.1931)" fill="black"/>
<circle cx="282.69" cy="91.8953" r="0.699414" transform="rotate(-1.52632 282.69 91.8953)" fill="black"/>
<circle cx="293.873" cy="91.5971" r="0.699414" transform="rotate(-1.52632 293.873 91.5971)" fill="black"/>
<circle cx="305.056" cy="91.2993" r="0.699414" transform="rotate(-1.52632 305.056 91.2993)" fill="black"/>
<circle cx="316.239" cy="91.0013" r="0.699414" transform="rotate(-1.52632 316.239 91.0013)" fill="black"/>
<circle cx="327.422" cy="90.7033" r="0.699414" transform="rotate(-1.52632 327.422 90.7033)" fill="black"/>
<circle cx="338.605" cy="90.4053" r="0.699414" transform="rotate(-1.52632 338.605 90.4053)" fill="black"/>
<circle cx="349.788" cy="90.107" r="0.699414" transform="rotate(-1.52632 349.788 90.107)" fill="black"/>
<circle cx="360.971" cy="89.8093" r="0.699414" transform="rotate(-1.52632 360.971 89.8093)" fill="black"/>
<circle cx="237.64" cy="81.2052" r="1.39838" transform="rotate(-1.52632 237.64 81.2052)" fill="black"/>
<circle cx="371.837" cy="77.6293" r="1.39838" transform="rotate(-1.52632 371.837 77.6293)" fill="black"/>
<circle cx="248.823" cy="80.907" r="1.39838" transform="rotate(-1.52632 248.823 80.907)" fill="black"/>
<circle cx="383.021" cy="77.3313" r="1.39838" transform="rotate(-1.52632 383.021 77.3313)" fill="black"/>
<circle cx="260.006" cy="80.6087" r="1.39838" transform="rotate(-1.52632 260.006 80.6087)" fill="black"/>
<circle cx="394.203" cy="77.0331" r="1.39838" transform="rotate(-1.52632 394.203 77.0331)" fill="black"/>
<circle cx="271.189" cy="80.311" r="1.39838" transform="rotate(-1.52632 271.189 80.311)" fill="black"/>
<circle cx="282.372" cy="80.0131" r="1.39838" transform="rotate(-1.52632 282.372 80.0131)" fill="black"/>
<circle cx="293.556" cy="79.7149" r="1.39838" transform="rotate(-1.52632 293.556 79.7149)" fill="black"/>
<circle cx="304.738" cy="79.4172" r="1.39838" transform="rotate(-1.52632 304.738 79.4172)" fill="black"/>
<circle cx="315.922" cy="79.1191" r="1.39838" transform="rotate(-1.52632 315.922 79.1191)" fill="black"/>
<circle cx="327.105" cy="78.8212" r="1.39838" transform="rotate(-1.52632 327.105 78.8212)" fill="black"/>
<circle cx="338.288" cy="78.5231" r="1.39838" transform="rotate(-1.52632 338.288 78.5231)" fill="black"/>
<circle cx="349.471" cy="78.2251" r="1.39838" transform="rotate(-1.52632 349.471 78.2251)" fill="black"/>
<circle cx="360.654" cy="77.9273" r="1.39838" transform="rotate(-1.52632 360.654 77.9273)" fill="black"/>
<circle cx="237.324" cy="69.3229" r="2.09758" transform="rotate(-1.52632 237.324 69.3229)" fill="black"/>
<circle cx="371.521" cy="65.7468" r="2.09758" transform="rotate(-1.52632 371.521 65.7468)" fill="black"/>
<circle cx="248.507" cy="69.0247" r="2.09758" transform="rotate(-1.52632 248.507 69.0247)" fill="black"/>
<circle cx="382.704" cy="65.449" r="2.09758" transform="rotate(-1.52632 382.704 65.449)" fill="black"/>
<circle cx="259.69" cy="68.7264" r="2.09758" transform="rotate(-1.52632 259.69 68.7264)" fill="black"/>
<circle cx="393.887" cy="65.1508" r="2.09758" transform="rotate(-1.52632 393.887 65.1508)" fill="black"/>
<circle cx="270.873" cy="68.4287" r="2.09758" transform="rotate(-1.52632 270.873 68.4287)" fill="black"/>
<circle cx="282.056" cy="68.1305" r="2.09758" transform="rotate(-1.52632 282.056 68.1305)" fill="black"/>
<circle cx="293.239" cy="67.8326" r="2.09758" transform="rotate(-1.52632 293.239 67.8326)" fill="black"/>
<circle cx="304.422" cy="67.5344" r="2.09758" transform="rotate(-1.52632 304.422 67.5344)" fill="black"/>
<circle cx="315.606" cy="67.2367" r="2.09758" transform="rotate(-1.52632 315.606 67.2367)" fill="black"/>
<circle cx="326.788" cy="66.9389" r="2.09758" transform="rotate(-1.52632 326.788 66.9389)" fill="black"/>
<circle cx="337.972" cy="66.6406" r="2.09758" transform="rotate(-1.52632 337.972 66.6406)" fill="black"/>
<circle cx="349.155" cy="66.3428" r="2.09758" transform="rotate(-1.52632 349.155 66.3428)" fill="black"/>
<circle cx="360.338" cy="66.0451" r="2.09758" transform="rotate(-1.52632 360.338 66.0451)" fill="black"/>
<circle cx="237.007" cy="57.4409" r="2.79677" transform="rotate(-1.52632 237.007 57.4409)" fill="black"/>
<circle cx="371.204" cy="53.8649" r="2.79677" transform="rotate(-1.52632 371.204 53.8649)" fill="black"/>
<circle cx="248.19" cy="57.1427" r="2.79677" transform="rotate(-1.52632 248.19 57.1427)" fill="black"/>
<circle cx="382.387" cy="53.567" r="2.79677" transform="rotate(-1.52632 382.387 53.567)" fill="black"/>
<circle cx="259.373" cy="56.8445" r="2.79677" transform="rotate(-1.52632 259.373 56.8445)" fill="black"/>
<circle cx="393.57" cy="53.2689" r="2.79677" transform="rotate(-1.52632 393.57 53.2689)" fill="black"/>
<circle cx="270.556" cy="56.5467" r="2.79677" transform="rotate(-1.52632 270.556 56.5467)" fill="black"/>
<circle cx="281.739" cy="56.2485" r="2.79677" transform="rotate(-1.52632 281.739 56.2485)" fill="black"/>
<circle cx="292.923" cy="55.9507" r="2.79677" transform="rotate(-1.52632 292.923 55.9507)" fill="black"/>
<circle cx="304.105" cy="55.6525" r="2.79677" transform="rotate(-1.52632 304.105 55.6525)" fill="black"/>
<circle cx="315.288" cy="55.3547" r="2.79677" transform="rotate(-1.52632 315.288 55.3547)" fill="black"/>
<circle cx="326.472" cy="55.0569" r="2.79677" transform="rotate(-1.52632 326.472 55.0569)" fill="black"/>
<circle cx="337.654" cy="54.7587" r="2.79677" transform="rotate(-1.52632 337.654 54.7587)" fill="black"/>
<circle cx="348.838" cy="54.4609" r="2.79677" transform="rotate(-1.52632 348.838 54.4609)" fill="black"/>
<circle cx="360.021" cy="54.1627" r="2.79677" transform="rotate(-1.52632 360.021 54.1627)" fill="black"/>
<circle cx="236.69" cy="45.5592" r="3.49596" transform="rotate(-1.52632 236.69 45.5592)" fill="black"/>
<circle cx="370.888" cy="41.9829" r="3.49596" transform="rotate(-1.52632 370.888 41.9829)" fill="black"/>
<circle cx="247.874" cy="45.2603" r="3.49596" transform="rotate(-1.52632 247.874 45.2603)" fill="black"/>
<circle cx="382.071" cy="41.6851" r="3.49596" transform="rotate(-1.52632 382.071 41.6851)" fill="black"/>
<circle cx="259.057" cy="44.9625" r="3.49596" transform="rotate(-1.52632 259.057 44.9625)" fill="black"/>
<circle cx="393.254" cy="41.3869" r="3.49596" transform="rotate(-1.52632 393.254 41.3869)" fill="black"/>
<circle cx="270.24" cy="44.6647" r="3.49596" transform="rotate(-1.52632 270.24 44.6647)" fill="black"/>
<circle cx="281.423" cy="44.3665" r="3.49596" transform="rotate(-1.52632 281.423 44.3665)" fill="black"/>
<circle cx="292.606" cy="44.0687" r="3.49596" transform="rotate(-1.52632 292.606 44.0687)" fill="black"/>
<circle cx="303.789" cy="43.7705" r="3.49596" transform="rotate(-1.52632 303.789 43.7705)" fill="black"/>
<circle cx="314.972" cy="43.4727" r="3.49596" transform="rotate(-1.52632 314.972 43.4727)" fill="black"/>
<circle cx="326.155" cy="43.1749" r="3.49596" transform="rotate(-1.52632 326.155 43.1749)" fill="black"/>
<circle cx="337.338" cy="42.8767" r="3.49596" transform="rotate(-1.52632 337.338 42.8767)" fill="black"/>
<circle cx="348.521" cy="42.5789" r="3.49596" transform="rotate(-1.52632 348.521 42.5789)" fill="black"/>
<circle cx="359.705" cy="42.2807" r="3.49596" transform="rotate(-1.52632 359.705 42.2807)" fill="black"/>
<circle cx="236.374" cy="33.6771" r="4.19515" transform="rotate(-1.52632 236.374 33.6771)" fill="black"/>
<circle cx="370.571" cy="30.101" r="4.19515" transform="rotate(-1.52632 370.571 30.101)" fill="black"/>
<circle cx="247.557" cy="33.3781" r="4.19515" transform="rotate(-1.52632 247.557 33.3781)" fill="black"/>
<circle cx="381.754" cy="29.8028" r="4.19515" transform="rotate(-1.52632 381.754 29.8028)" fill="black"/>
<circle cx="258.74" cy="33.0803" r="4.19515" transform="rotate(-1.52632 258.74 33.0803)" fill="black"/>
<circle cx="392.937" cy="29.5046" r="4.19515" transform="rotate(-1.52632 392.937 29.5046)" fill="black"/>
<circle cx="269.923" cy="32.7825" r="4.19515" transform="rotate(-1.52632 269.923 32.7825)" fill="black"/>
<circle cx="281.106" cy="32.4847" r="4.19515" transform="rotate(-1.52632 281.106 32.4847)" fill="black"/>
<circle cx="292.289" cy="32.1865" r="4.19515" transform="rotate(-1.52632 292.289 32.1865)" fill="black"/>
<circle cx="303.472" cy="31.8882" r="4.19515" transform="rotate(-1.52632 303.472 31.8882)" fill="black"/>
<circle cx="314.655" cy="31.5904" r="4.19515" transform="rotate(-1.52632 314.655 31.5904)" fill="black"/>
<circle cx="325.839" cy="31.2926" r="4.19515" transform="rotate(-1.52632 325.839 31.2926)" fill="black"/>
<circle cx="337.022" cy="30.9944" r="4.19515" transform="rotate(-1.52632 337.022 30.9944)" fill="black"/>
<circle cx="348.205" cy="30.6962" r="4.19515" transform="rotate(-1.52632 348.205 30.6962)" fill="black"/>
<circle cx="359.388" cy="30.3984" r="4.19515" transform="rotate(-1.52632 359.388 30.3984)" fill="black"/>
<circle cx="236.057" cy="21.7948" r="4.89435" transform="rotate(-1.52632 236.057 21.7948)" fill="black"/>
<circle cx="370.254" cy="18.2187" r="4.89435" transform="rotate(-1.52632 370.254 18.2187)" fill="black"/>
<circle cx="247.24" cy="21.4961" r="4.89435" transform="rotate(-1.52632 247.24 21.4961)" fill="black"/>
<circle cx="381.438" cy="17.9209" r="4.89435" transform="rotate(-1.52632 381.438 17.9209)" fill="black"/>
<circle cx="258.423" cy="21.1983" r="4.89435" transform="rotate(-1.52632 258.423 21.1983)" fill="black"/>
<circle cx="392.621" cy="17.6231" r="4.89435" transform="rotate(-1.52632 392.621 17.6231)" fill="black"/>
<circle cx="269.606" cy="20.9005" r="4.89435" transform="rotate(-1.52632 269.606 20.9005)" fill="black"/>
<circle cx="280.789" cy="20.6023" r="4.89435" transform="rotate(-1.52632 280.789 20.6023)" fill="black"/>
<circle cx="291.972" cy="20.3045" r="4.89435" transform="rotate(-1.52632 291.972 20.3045)" fill="black"/>
<circle cx="303.156" cy="20.0063" r="4.89435" transform="rotate(-1.52632 303.156 20.0063)" fill="black"/>
<circle cx="314.339" cy="19.7085" r="4.89435" transform="rotate(-1.52632 314.339 19.7085)" fill="black"/>
<circle cx="325.522" cy="19.4107" r="4.89435" transform="rotate(-1.52632 325.522 19.4107)" fill="black"/>
<circle cx="336.705" cy="19.1125" r="4.89435" transform="rotate(-1.52632 336.705 19.1125)" fill="black"/>
<circle cx="347.888" cy="18.8147" r="4.89435" transform="rotate(-1.52632 347.888 18.8147)" fill="black"/>
<circle cx="359.071" cy="18.5165" r="4.89435" transform="rotate(-1.52632 359.071 18.5165)" fill="black"/>
<circle cx="235.741" cy="9.9126" r="5.59354" transform="rotate(-1.52632 235.741 9.9126)" fill="black"/>
<circle cx="369.938" cy="6.33667" r="5.59354" transform="rotate(-1.52632 369.938 6.33667)" fill="black"/>
<circle cx="246.924" cy="9.61453" r="5.59354" transform="rotate(-1.52632 246.924 9.61453)" fill="black"/>
<circle cx="381.121" cy="6.03888" r="5.59354" transform="rotate(-1.52632 381.121 6.03888)" fill="black"/>
<circle cx="258.107" cy="9.31671" r="5.59354" transform="rotate(-1.52632 258.107 9.31671)" fill="black"/>
<circle cx="392.304" cy="5.74066" r="5.59354" transform="rotate(-1.52632 392.304 5.74066)" fill="black"/>
<circle cx="269.29" cy="9.01849" r="5.59354" transform="rotate(-1.52632 269.29 9.01849)" fill="black"/>
<circle cx="280.473" cy="8.72027" r="5.59354" transform="rotate(-1.52632 280.473 8.72027)" fill="black"/>
<circle cx="291.656" cy="8.42251" r="5.59354" transform="rotate(-1.52632 291.656 8.42251)" fill="black"/>
<circle cx="302.839" cy="8.12469" r="5.59354" transform="rotate(-1.52632 302.839 8.12469)" fill="black"/>
<circle cx="314.022" cy="7.82647" r="5.59354" transform="rotate(-1.52632 314.022 7.82647)" fill="black"/>
<circle cx="325.205" cy="7.52868" r="5.59354" transform="rotate(-1.52632 325.205 7.52868)" fill="black"/>
<circle cx="336.388" cy="7.23047" r="5.59354" transform="rotate(-1.52632 336.388 7.23047)" fill="black"/>
<circle cx="347.572" cy="6.93265" r="5.59354" transform="rotate(-1.52632 347.572 6.93265)" fill="black"/>
<circle cx="358.755" cy="6.63446" r="5.59354" transform="rotate(-1.52632 358.755 6.63446)" fill="black"/>
</g>
<g opacity="0.12">
<circle cx="339.619" cy="344.392" r="0.670454" transform="rotate(101.106 339.619 344.392)" fill="black"/>
<circle cx="314.823" cy="470.709" r="0.670454" transform="rotate(101.106 314.823 470.709)" fill="black"/>
<circle cx="337.553" cy="354.919" r="0.670454" transform="rotate(101.106 337.553 354.919)" fill="black"/>
<circle cx="312.757" cy="481.235" r="0.670454" transform="rotate(101.106 312.757 481.235)" fill="black"/>
<circle cx="335.487" cy="365.445" r="0.670454" transform="rotate(101.106 335.487 365.445)" fill="black"/>
<circle cx="310.691" cy="491.762" r="0.670454" transform="rotate(101.106 310.691 491.762)" fill="black"/>
<circle cx="333.42" cy="375.971" r="0.670454" transform="rotate(101.106 333.42 375.971)" fill="black"/>
<circle cx="331.354" cy="386.498" r="0.670454" transform="rotate(101.106 331.354 386.498)" fill="black"/>
<circle cx="329.288" cy="397.024" r="0.670454" transform="rotate(101.106 329.288 397.024)" fill="black"/>
<circle cx="327.221" cy="407.55" r="0.670454" transform="rotate(101.106 327.221 407.55)" fill="black"/>
<circle cx="325.155" cy="418.077" r="0.670454" transform="rotate(101.106 325.155 418.077)" fill="black"/>
<circle cx="323.089" cy="428.603" r="0.670454" transform="rotate(101.106 323.089 428.603)" fill="black"/>
<circle cx="321.023" cy="439.13" r="0.670454" transform="rotate(101.106 321.023 439.13)" fill="black"/>
<circle cx="318.956" cy="449.656" r="0.670454" transform="rotate(101.106 318.956 449.656)" fill="black"/>
<circle cx="316.89" cy="460.182" r="0.670454" transform="rotate(101.106 316.89 460.182)" fill="black"/>
<circle cx="350.803" cy="346.588" r="1.34091" transform="rotate(101.106 350.803 346.588)" fill="black"/>
<circle cx="326.007" cy="472.904" r="1.34091" transform="rotate(101.106 326.007 472.904)" fill="black"/>
<circle cx="348.737" cy="357.114" r="1.34091" transform="rotate(101.106 348.737 357.114)" fill="black"/>
<circle cx="323.941" cy="483.431" r="1.34091" transform="rotate(101.106 323.941 483.431)" fill="black"/>
<circle cx="346.671" cy="367.641" r="1.34091" transform="rotate(101.106 346.671 367.641)" fill="black"/>
<circle cx="321.875" cy="493.957" r="1.34091" transform="rotate(101.106 321.875 493.957)" fill="black"/>
<circle cx="344.605" cy="378.167" r="1.34091" transform="rotate(101.106 344.605 378.167)" fill="black"/>
<circle cx="342.538" cy="388.693" r="1.34091" transform="rotate(101.106 342.538 388.693)" fill="black"/>
<circle cx="340.472" cy="399.22" r="1.34091" transform="rotate(101.106 340.472 399.22)" fill="black"/>
<circle cx="338.405" cy="409.746" r="1.34091" transform="rotate(101.106 338.405 409.746)" fill="black"/>
<circle cx="336.339" cy="420.272" r="1.34091" transform="rotate(101.106 336.339 420.272)" fill="black"/>
<circle cx="334.273" cy="430.799" r="1.34091" transform="rotate(101.106 334.273 430.799)" fill="black"/>
<circle cx="332.207" cy="441.325" r="1.34091" transform="rotate(101.106 332.207 441.325)" fill="black"/>
<circle cx="330.14" cy="451.851" r="1.34091" transform="rotate(101.106 330.14 451.851)" fill="black"/>
<circle cx="328.074" cy="462.378" r="1.34091" transform="rotate(101.106 328.074 462.378)" fill="black"/>
<circle cx="361.988" cy="348.783" r="2.01136" transform="rotate(101.106 361.988 348.783)" fill="black"/>
<circle cx="337.192" cy="475.1" r="2.01136" transform="rotate(101.106 337.192 475.1)" fill="black"/>
<circle cx="359.922" cy="359.31" r="2.01136" transform="rotate(101.106 359.922 359.31)" fill="black"/>
<circle cx="335.126" cy="485.626" r="2.01136" transform="rotate(101.106 335.126 485.626)" fill="black"/>
<circle cx="357.856" cy="369.836" r="2.01136" transform="rotate(101.106 357.856 369.836)" fill="black"/>
<circle cx="333.059" cy="496.152" r="2.01136" transform="rotate(101.106 333.059 496.152)" fill="black"/>
<circle cx="355.789" cy="380.362" r="2.01136" transform="rotate(101.106 355.789 380.362)" fill="black"/>
<circle cx="353.723" cy="390.889" r="2.01136" transform="rotate(101.106 353.723 390.889)" fill="black"/>
<circle cx="351.656" cy="401.415" r="2.01136" transform="rotate(101.106 351.656 401.415)" fill="black"/>
<circle cx="349.591" cy="411.942" r="2.01136" transform="rotate(101.106 349.591 411.942)" fill="black"/>
<circle cx="347.524" cy="422.468" r="2.01136" transform="rotate(101.106 347.524 422.468)" fill="black"/>
<circle cx="345.457" cy="432.994" r="2.01136" transform="rotate(101.106 345.457 432.994)" fill="black"/>
<circle cx="343.391" cy="443.521" r="2.01136" transform="rotate(101.106 343.391 443.521)" fill="black"/>
<circle cx="341.325" cy="454.047" r="2.01136" transform="rotate(101.106 341.325 454.047)" fill="black"/>
<circle cx="339.258" cy="464.573" r="2.01136" transform="rotate(101.106 339.258 464.573)" fill="black"/>
<circle cx="373.172" cy="350.979" r="2.68182" transform="rotate(101.106 373.172 350.979)" fill="black"/>
<circle cx="348.376" cy="477.295" r="2.68182" transform="rotate(101.106 348.376 477.295)" fill="black"/>
<circle cx="371.106" cy="361.505" r="2.68182" transform="rotate(101.106 371.106 361.505)" fill="black"/>
<circle cx="346.31" cy="487.822" r="2.68182" transform="rotate(101.106 346.31 487.822)" fill="black"/>
<circle cx="369.04" cy="372.031" r="2.68182" transform="rotate(101.106 369.04 372.031)" fill="black"/>
<circle cx="344.243" cy="498.348" r="2.68182" transform="rotate(101.106 344.243 498.348)" fill="black"/>
<circle cx="366.973" cy="382.558" r="2.68182" transform="rotate(101.106 366.973 382.558)" fill="black"/>
<circle cx="364.907" cy="393.084" r="2.68182" transform="rotate(101.106 364.907 393.084)" fill="black"/>
<circle cx="362.841" cy="403.611" r="2.68182" transform="rotate(101.106 362.841 403.611)" fill="black"/>
<circle cx="360.775" cy="414.137" r="2.68182" transform="rotate(101.106 360.775 414.137)" fill="black"/>
<circle cx="358.708" cy="424.663" r="2.68182" transform="rotate(101.106 358.708 424.663)" fill="black"/>
<circle cx="356.641" cy="435.19" r="2.68182" transform="rotate(101.106 356.641 435.19)" fill="black"/>
<circle cx="354.575" cy="445.716" r="2.68182" transform="rotate(101.106 354.575 445.716)" fill="black"/>
<circle cx="352.509" cy="456.242" r="2.68182" transform="rotate(101.106 352.509 456.242)" fill="black"/>
<circle cx="350.443" cy="466.769" r="2.68182" transform="rotate(101.106 350.443 466.769)" fill="black"/>
<circle cx="384.356" cy="353.174" r="3.35227" transform="rotate(101.106 384.356 353.174)" fill="black"/>
<circle cx="359.56" cy="479.491" r="3.35227" transform="rotate(101.106 359.56 479.491)" fill="black"/>
<circle cx="382.291" cy="363.701" r="3.35227" transform="rotate(101.106 382.291 363.701)" fill="black"/>
<circle cx="357.494" cy="490.017" r="3.35227" transform="rotate(101.106 357.494 490.017)" fill="black"/>
<circle cx="380.224" cy="374.227" r="3.35227" transform="rotate(101.106 380.224 374.227)" fill="black"/>
<circle cx="355.428" cy="500.543" r="3.35227" transform="rotate(101.106 355.428 500.543)" fill="black"/>
<circle cx="378.158" cy="384.753" r="3.35227" transform="rotate(101.106 378.158 384.753)" fill="black"/>
<circle cx="376.092" cy="395.28" r="3.35227" transform="rotate(101.106 376.092 395.28)" fill="black"/>
<circle cx="374.025" cy="405.806" r="3.35227" transform="rotate(101.106 374.025 405.806)" fill="black"/>
<circle cx="371.959" cy="416.333" r="3.35227" transform="rotate(101.106 371.959 416.333)" fill="black"/>
<circle cx="369.892" cy="426.859" r="3.35227" transform="rotate(101.106 369.892 426.859)" fill="black"/>
<circle cx="367.826" cy="437.385" r="3.35227" transform="rotate(101.106 367.826 437.385)" fill="black"/>
<circle cx="365.76" cy="447.912" r="3.35227" transform="rotate(101.106 365.76 447.912)" fill="black"/>
<circle cx="363.693" cy="458.438" r="3.35227" transform="rotate(101.106 363.693 458.438)" fill="black"/>
<circle cx="361.627" cy="468.964" r="3.35227" transform="rotate(101.106 361.627 468.964)" fill="black"/>
<circle cx="395.541" cy="355.37" r="4.02273" transform="rotate(101.106 395.541 355.37)" fill="black"/>
<circle cx="370.745" cy="481.686" r="4.02273" transform="rotate(101.106 370.745 481.686)" fill="black"/>
<circle cx="393.475" cy="365.896" r="4.02273" transform="rotate(101.106 393.475 365.896)" fill="black"/>
<circle cx="368.679" cy="492.213" r="4.02273" transform="rotate(101.106 368.679 492.213)" fill="black"/>
<circle cx="391.409" cy="376.423" r="4.02273" transform="rotate(101.106 391.409 376.423)" fill="black"/>
<circle cx="366.612" cy="502.739" r="4.02273" transform="rotate(101.106 366.612 502.739)" fill="black"/>
<circle cx="389.342" cy="386.949" r="4.02273" transform="rotate(101.106 389.342 386.949)" fill="black"/>
<circle cx="387.276" cy="397.475" r="4.02273" transform="rotate(101.106 387.276 397.475)" fill="black"/>
<circle cx="385.209" cy="408.002" r="4.02273" transform="rotate(101.106 385.209 408.002)" fill="black"/>
<circle cx="383.143" cy="418.528" r="4.02273" transform="rotate(101.106 383.143 418.528)" fill="black"/>
<circle cx="381.077" cy="429.054" r="4.02273" transform="rotate(101.106 381.077 429.054)" fill="black"/>
<circle cx="379.01" cy="439.581" r="4.02273" transform="rotate(101.106 379.01 439.581)" fill="black"/>
<circle cx="376.944" cy="450.107" r="4.02273" transform="rotate(101.106 376.944 450.107)" fill="black"/>
<circle cx="374.878" cy="460.634" r="4.02273" transform="rotate(101.106 374.878 460.634)" fill="black"/>
<circle cx="372.811" cy="471.16" r="4.02273" transform="rotate(101.106 372.811 471.16)" fill="black"/>
<circle cx="381.929" cy="483.882" r="4.69318" transform="rotate(101.106 381.929 483.882)" fill="black"/>
<circle cx="379.863" cy="494.408" r="4.69318" transform="rotate(101.106 379.863 494.408)" fill="black"/>
<circle cx="377.796" cy="504.934" r="4.69318" transform="rotate(101.106 377.796 504.934)" fill="black"/>
<circle cx="398.46" cy="399.671" r="4.69318" transform="rotate(101.106 398.46 399.671)" fill="black"/>
<circle cx="396.394" cy="410.197" r="4.69318" transform="rotate(101.106 396.394 410.197)" fill="black"/>
<circle cx="394.328" cy="420.724" r="4.69318" transform="rotate(101.106 394.328 420.724)" fill="black"/>
<circle cx="392.261" cy="431.25" r="4.69318" transform="rotate(101.106 392.261 431.25)" fill="black"/>
<circle cx="390.194" cy="441.776" r="4.69318" transform="rotate(101.106 390.194 441.776)" fill="black"/>
<circle cx="388.128" cy="452.303" r="4.69318" transform="rotate(101.106 388.128 452.303)" fill="black"/>
<circle cx="386.062" cy="462.829" r="4.69318" transform="rotate(101.106 386.062 462.829)" fill="black"/>
<circle cx="383.996" cy="473.355" r="4.69318" transform="rotate(101.106 383.996 473.355)" fill="black"/>
<circle cx="393.113" cy="486.077" r="5.36363" transform="rotate(101.106 393.113 486.077)" fill="black"/>
<circle cx="391.047" cy="496.604" r="5.36363" transform="rotate(101.106 391.047 496.604)" fill="black"/>
<circle cx="388.98" cy="507.13" r="5.36363" transform="rotate(101.106 388.98 507.13)" fill="black"/>
<circle cx="397.246" cy="465.024" r="5.36363" transform="rotate(101.106 397.246 465.024)" fill="black"/>
<circle cx="395.18" cy="475.551" r="5.36363" transform="rotate(101.106 395.18 475.551)" fill="black"/>
</g>
<g opacity="0.12">
<circle cx="155.545" cy="740.67" r="0.670454" transform="rotate(-180 155.545 740.67)" fill="black"/>
<circle cx="26.8181" cy="740.67" r="0.670454" transform="rotate(-180 26.8181 740.67)" fill="black"/>
<circle cx="144.818" cy="740.67" r="0.670454" transform="rotate(-180 144.818 740.67)" fill="black"/>
<circle cx="16.091" cy="740.67" r="0.670454" transform="rotate(-180 16.091 740.67)" fill="black"/>
<circle cx="134.091" cy="740.67" r="0.670454" transform="rotate(-180 134.091 740.67)" fill="black"/>
<circle cx="5.36348" cy="740.671" r="0.670454" transform="rotate(-180 5.36348 740.671)" fill="black"/>
<circle cx="123.363" cy="740.67" r="0.670454" transform="rotate(-180 123.363 740.67)" fill="black"/>
<circle cx="112.636" cy="740.67" r="0.670454" transform="rotate(-180 112.636 740.67)" fill="black"/>
<circle cx="101.909" cy="740.671" r="0.670454" transform="rotate(-180 101.909 740.671)" fill="black"/>
<circle cx="91.1818" cy="740.67" r="0.670454" transform="rotate(-180 91.1818 740.67)" fill="black"/>
<circle cx="80.4545" cy="740.67" r="0.670454" transform="rotate(-180 80.4545 740.67)" fill="black"/>
<circle cx="69.7272" cy="740.67" r="0.670454" transform="rotate(-180 69.7272 740.67)" fill="black"/>
<circle cx="59" cy="740.67" r="0.670454" transform="rotate(-180 59 740.67)" fill="black"/>
<circle cx="48.2727" cy="740.671" r="0.670454" transform="rotate(-180 48.2727 740.671)" fill="black"/>
<circle cx="37.5454" cy="740.67" r="0.670454" transform="rotate(-180 37.5454 740.67)" fill="black"/>
<circle cx="155.545" cy="752.068" r="1.34091" transform="rotate(-180 155.545 752.068)" fill="black"/>
<circle cx="26.818" cy="752.068" r="1.34091" transform="rotate(-180 26.818 752.068)" fill="black"/>
<circle cx="144.818" cy="752.068" r="1.34091" transform="rotate(-180 144.818 752.068)" fill="black"/>
<circle cx="16.0907" cy="752.068" r="1.34091" transform="rotate(-180 16.0907 752.068)" fill="black"/>
<circle cx="134.091" cy="752.068" r="1.34091" transform="rotate(-180 134.091 752.068)" fill="black"/>
<circle cx="5.36368" cy="752.068" r="1.34091" transform="rotate(-180 5.36368 752.068)" fill="black"/>
<circle cx="123.363" cy="752.068" r="1.34091" transform="rotate(-180 123.363 752.068)" fill="black"/>
<circle cx="112.636" cy="752.068" r="1.34091" transform="rotate(-180 112.636 752.068)" fill="black"/>
<circle cx="101.909" cy="752.068" r="1.34091" transform="rotate(-180 101.909 752.068)" fill="black"/>
<circle cx="91.1818" cy="752.068" r="1.34091" transform="rotate(-180 91.1818 752.068)" fill="black"/>
<circle cx="80.4545" cy="752.068" r="1.34091" transform="rotate(-180 80.4545 752.068)" fill="black"/>
<circle cx="69.7272" cy="752.068" r="1.34091" transform="rotate(-180 69.7272 752.068)" fill="black"/>
<circle cx="58.9999" cy="752.068" r="1.34091" transform="rotate(-180 58.9999 752.068)" fill="black"/>
<circle cx="48.2726" cy="752.068" r="1.34091" transform="rotate(-180 48.2726 752.068)" fill="black"/>
<circle cx="37.5453" cy="752.068" r="1.34091" transform="rotate(-180 37.5453 752.068)" fill="black"/>
<circle cx="155.545" cy="763.466" r="2.01136" transform="rotate(-180 155.545 763.466)" fill="black"/>
<circle cx="26.818" cy="763.466" r="2.01136" transform="rotate(-180 26.818 763.466)" fill="black"/>
<circle cx="144.818" cy="763.466" r="2.01136" transform="rotate(-180 144.818 763.466)" fill="black"/>
<circle cx="16.0907" cy="763.466" r="2.01136" transform="rotate(-180 16.0907 763.466)" fill="black"/>
<circle cx="134.091" cy="763.466" r="2.01136" transform="rotate(-180 134.091 763.466)" fill="black"/>
<circle cx="5.36339" cy="763.466" r="2.01136" transform="rotate(-180 5.36339 763.466)" fill="black"/>
<circle cx="123.363" cy="763.466" r="2.01136" transform="rotate(-180 123.363 763.466)" fill="black"/>
<circle cx="112.636" cy="763.466" r="2.01136" transform="rotate(-180 112.636 763.466)" fill="black"/>
<circle cx="101.909" cy="763.466" r="2.01136" transform="rotate(-180 101.909 763.466)" fill="black"/>
<circle cx="91.1818" cy="763.466" r="2.01136" transform="rotate(-180 91.1818 763.466)" fill="black"/>
<circle cx="80.4545" cy="763.466" r="2.01136" transform="rotate(-180 80.4545 763.466)" fill="black"/>
<circle cx="69.7272" cy="763.466" r="2.01136" transform="rotate(-180 69.7272 763.466)" fill="black"/>
<circle cx="58.9999" cy="763.466" r="2.01136" transform="rotate(-180 58.9999 763.466)" fill="black"/>
<circle cx="48.2726" cy="763.466" r="2.01136" transform="rotate(-180 48.2726 763.466)" fill="black"/>
<circle cx="37.5453" cy="763.466" r="2.01136" transform="rotate(-180 37.5453 763.466)" fill="black"/>
<circle cx="155.545" cy="774.863" r="2.68182" transform="rotate(-180 155.545 774.863)" fill="black"/>
<circle cx="26.8179" cy="774.864" r="2.68182" transform="rotate(-180 26.8179 774.864)" fill="black"/>
<circle cx="144.818" cy="774.864" r="2.68182" transform="rotate(-180 144.818 774.864)" fill="black"/>
<circle cx="16.0906" cy="774.864" r="2.68182" transform="rotate(-180 16.0906 774.864)" fill="black"/>
<circle cx="134.091" cy="774.864" r="2.68182" transform="rotate(-180 134.091 774.864)" fill="black"/>
<circle cx="5.36335" cy="774.864" r="2.68182" transform="rotate(-180 5.36335 774.864)" fill="black"/>
<circle cx="123.363" cy="774.864" r="2.68182" transform="rotate(-180 123.363 774.864)" fill="black"/>
<circle cx="112.636" cy="774.864" r="2.68182" transform="rotate(-180 112.636 774.864)" fill="black"/>
<circle cx="101.909" cy="774.864" r="2.68182" transform="rotate(-180 101.909 774.864)" fill="black"/>
<circle cx="91.1817" cy="774.864" r="2.68182" transform="rotate(-180 91.1817 774.864)" fill="black"/>
<circle cx="80.4544" cy="774.864" r="2.68182" transform="rotate(-180 80.4544 774.864)" fill="black"/>
<circle cx="69.7271" cy="774.864" r="2.68182" transform="rotate(-180 69.7271 774.864)" fill="black"/>
<circle cx="58.9998" cy="774.864" r="2.68182" transform="rotate(-180 58.9998 774.864)" fill="black"/>
<circle cx="48.2725" cy="774.864" r="2.68182" transform="rotate(-180 48.2725 774.864)" fill="black"/>
<circle cx="37.5452" cy="774.864" r="2.68182" transform="rotate(-180 37.5452 774.864)" fill="black"/>
<circle cx="155.545" cy="786.261" r="3.35227" transform="rotate(-180 155.545 786.261)" fill="black"/>
<circle cx="26.8179" cy="786.261" r="3.35227" transform="rotate(-180 26.8179 786.261)" fill="black"/>
<circle cx="144.818" cy="786.262" r="3.35227" transform="rotate(-180 144.818 786.262)" fill="black"/>
<circle cx="16.0906" cy="786.261" r="3.35227" transform="rotate(-180 16.0906 786.261)" fill="black"/>
<circle cx="134.091" cy="786.261" r="3.35227" transform="rotate(-180 134.091 786.261)" fill="black"/>
<circle cx="5.36331" cy="786.261" r="3.35227" transform="rotate(-180 5.36331 786.261)" fill="black"/>
<circle cx="123.363" cy="786.261" r="3.35227" transform="rotate(-180 123.363 786.261)" fill="black"/>
<circle cx="112.636" cy="786.262" r="3.35227" transform="rotate(-180 112.636 786.262)" fill="black"/>
<circle cx="101.909" cy="786.261" r="3.35227" transform="rotate(-180 101.909 786.261)" fill="black"/>
<circle cx="91.1817" cy="786.262" r="3.35227" transform="rotate(-180 91.1817 786.262)" fill="black"/>
<circle cx="80.4544" cy="786.261" r="3.35227" transform="rotate(-180 80.4544 786.261)" fill="black"/>
<circle cx="69.7271" cy="786.261" r="3.35227" transform="rotate(-180 69.7271 786.261)" fill="black"/>
<circle cx="58.9998" cy="786.261" r="3.35227" transform="rotate(-180 58.9998 786.261)" fill="black"/>
<circle cx="48.2725" cy="786.261" r="3.35227" transform="rotate(-180 48.2725 786.261)" fill="black"/>
<circle cx="37.5452" cy="786.261" r="3.35227" transform="rotate(-180 37.5452 786.261)" fill="black"/>
<circle cx="155.545" cy="797.659" r="4.02273" transform="rotate(-180 155.545 797.659)" fill="black"/>
<circle cx="26.8181" cy="797.659" r="4.02273" transform="rotate(-180 26.8181 797.659)" fill="black"/>
<circle cx="144.818" cy="797.66" r="4.02273" transform="rotate(-180 144.818 797.66)" fill="black"/>
<circle cx="16.0908" cy="797.659" r="4.02273" transform="rotate(-180 16.0908 797.659)" fill="black"/>
<circle cx="134.091" cy="797.659" r="4.02273" transform="rotate(-180 134.091 797.659)" fill="black"/>
<circle cx="5.36351" cy="797.659" r="4.02273" transform="rotate(-180 5.36351 797.659)" fill="black"/>
<circle cx="123.364" cy="797.659" r="4.02273" transform="rotate(-180 123.364 797.659)" fill="black"/>
<circle cx="112.636" cy="797.659" r="4.02273" transform="rotate(-180 112.636 797.659)" fill="black"/>
<circle cx="101.909" cy="797.659" r="4.02273" transform="rotate(-180 101.909 797.659)" fill="black"/>
<circle cx="91.1819" cy="797.66" r="4.02273" transform="rotate(-180 91.1819 797.66)" fill="black"/>
<circle cx="80.4546" cy="797.659" r="4.02273" transform="rotate(-180 80.4546 797.659)" fill="black"/>
<circle cx="69.7273" cy="797.659" r="4.02273" transform="rotate(-180 69.7273 797.659)" fill="black"/>
<circle cx="59" cy="797.659" r="4.02273" transform="rotate(-180 59 797.659)" fill="black"/>
<circle cx="48.2727" cy="797.66" r="4.02273" transform="rotate(-180 48.2727 797.66)" fill="black"/>
<circle cx="37.5454" cy="797.659" r="4.02273" transform="rotate(-180 37.5454 797.659)" fill="black"/>
<circle cx="155.545" cy="809.057" r="4.69318" transform="rotate(-180 155.545 809.057)" fill="black"/>
<circle cx="26.8181" cy="809.057" r="4.69318" transform="rotate(-180 26.8181 809.057)" fill="black"/>
<circle cx="144.818" cy="809.057" r="4.69318" transform="rotate(-180 144.818 809.057)" fill="black"/>
<circle cx="16.0908" cy="809.057" r="4.69318" transform="rotate(-180 16.0908 809.057)" fill="black"/>
<circle cx="134.091" cy="809.057" r="4.69318" transform="rotate(-180 134.091 809.057)" fill="black"/>
<circle cx="5.36346" cy="809.057" r="4.69318" transform="rotate(-180 5.36346 809.057)" fill="black"/>
<circle cx="123.363" cy="809.057" r="4.69318" transform="rotate(-180 123.363 809.057)" fill="black"/>
<circle cx="112.636" cy="809.057" r="4.69318" transform="rotate(-180 112.636 809.057)" fill="black"/>
<circle cx="101.909" cy="809.057" r="4.69318" transform="rotate(-180 101.909 809.057)" fill="black"/>
<circle cx="91.1818" cy="809.057" r="4.69318" transform="rotate(-180 91.1818 809.057)" fill="black"/>
<circle cx="80.4545" cy="809.057" r="4.69318" transform="rotate(-180 80.4545 809.057)" fill="black"/>
<circle cx="69.7272" cy="809.057" r="4.69318" transform="rotate(-180 69.7272 809.057)" fill="black"/>
<circle cx="58.9999" cy="809.057" r="4.69318" transform="rotate(-180 58.9999 809.057)" fill="black"/>
<circle cx="48.2726" cy="809.057" r="4.69318" transform="rotate(-180 48.2726 809.057)" fill="black"/>
<circle cx="37.5453" cy="809.057" r="4.69318" transform="rotate(-180 37.5453 809.057)" fill="black"/>
<circle cx="155.545" cy="820.454" r="5.36363" transform="rotate(-180 155.545 820.454)" fill="black"/>
<circle cx="26.818" cy="820.455" r="5.36363" transform="rotate(-180 26.818 820.455)" fill="black"/>
<circle cx="144.818" cy="820.455" r="5.36363" transform="rotate(-180 144.818 820.455)" fill="black"/>
<circle cx="16.091" cy="820.454" r="5.36363" transform="rotate(-180 16.091 820.454)" fill="black"/>
<circle cx="134.091" cy="820.454" r="5.36363" transform="rotate(-180 134.091 820.454)" fill="black"/>
<circle cx="5.36366" cy="820.455" r="5.36363" transform="rotate(-180 5.36366 820.455)" fill="black"/>
<circle cx="123.363" cy="820.455" r="5.36363" transform="rotate(-180 123.363 820.455)" fill="black"/>
<circle cx="112.636" cy="820.455" r="5.36363" transform="rotate(-180 112.636 820.455)" fill="black"/>
<circle cx="101.909" cy="820.455" r="5.36363" transform="rotate(-180 101.909 820.455)" fill="black"/>
<circle cx="91.1818" cy="820.454" r="5.36363" transform="rotate(-180 91.1818 820.454)" fill="black"/>
<circle cx="80.4545" cy="820.455" r="5.36363" transform="rotate(-180 80.4545 820.455)" fill="black"/>
<circle cx="69.7272" cy="820.454" r="5.36363" transform="rotate(-180 69.7272 820.454)" fill="black"/>
<circle cx="58.9999" cy="820.455" r="5.36363" transform="rotate(-180 58.9999 820.455)" fill="black"/>
<circle cx="48.2726" cy="820.455" r="5.36363" transform="rotate(-180 48.2726 820.455)" fill="black"/>
<circle cx="37.5455" cy="820.455" r="5.36363" transform="rotate(-180 37.5455 820.455)" fill="black"/>
</g>
<g opacity="0.12">
<circle cx="155.198" cy="192.457" r="0.959516" transform="rotate(176.269 155.198 192.457)" fill="black"/>
<circle cx="139.879" cy="193.456" r="0.959516" transform="rotate(176.269 139.879 193.456)" fill="black"/>
<circle cx="124.559" cy="194.455" r="0.959516" transform="rotate(176.269 124.559 194.455)" fill="black"/>
<circle cx="109.239" cy="195.454" r="0.959516" transform="rotate(176.269 109.239 195.454)" fill="black"/>
<circle cx="93.9193" cy="196.453" r="0.959516" transform="rotate(176.269 93.9193 196.453)" fill="black"/>
<circle cx="78.6" cy="197.452" r="0.959516" transform="rotate(176.269 78.6 197.452)" fill="black"/>
<circle cx="63.2801" cy="198.451" r="0.959516" transform="rotate(176.269 63.2801 198.451)" fill="black"/>
<circle cx="47.9603" cy="199.45" r="0.959516" transform="rotate(176.269 47.9603 199.45)" fill="black"/>
<circle cx="32.6407" cy="200.449" r="0.959516" transform="rotate(176.269 32.6407 200.449)" fill="black"/>
<circle cx="17.3209" cy="201.448" r="0.959516" transform="rotate(176.269 17.3209 201.448)" fill="black"/>
<circle cx="2.00107" cy="202.448" r="0.959516" transform="rotate(176.269 2.00107 202.448)" fill="black"/>
<circle cx="156.26" cy="208.734" r="1.91903" transform="rotate(176.269 156.26 208.734)" fill="black"/>
<circle cx="140.94" cy="209.733" r="1.91903" transform="rotate(176.269 140.94 209.733)" fill="black"/>
<circle cx="125.62" cy="210.733" r="1.91903" transform="rotate(176.269 125.62 210.733)" fill="black"/>
<circle cx="110.3" cy="211.731" r="1.91903" transform="rotate(176.269 110.3 211.731)" fill="black"/>
<circle cx="94.9807" cy="212.73" r="1.91903" transform="rotate(176.269 94.9807 212.73)" fill="black"/>
<circle cx="79.6608" cy="213.73" r="1.91903" transform="rotate(176.269 79.6608 213.73)" fill="black"/>
<circle cx="64.3415" cy="214.728" r="1.91903" transform="rotate(176.269 64.3415 214.728)" fill="black"/>
<circle cx="49.0217" cy="215.727" r="1.91903" transform="rotate(176.269 49.0217 215.727)" fill="black"/>
<circle cx="33.7021" cy="216.726" r="1.91903" transform="rotate(176.269 33.7021 216.726)" fill="black"/>
<circle cx="18.3823" cy="217.726" r="1.91903" transform="rotate(176.269 18.3823 217.726)" fill="black"/>
<circle cx="3.06245" cy="218.725" r="1.91903" transform="rotate(176.269 3.06245 218.725)" fill="black"/>
<circle cx="157.321" cy="225.011" r="2.87855" transform="rotate(176.269 157.321 225.011)" fill="black"/>
<circle cx="142.001" cy="226.011" r="2.87855" transform="rotate(176.269 142.001 226.011)" fill="black"/>
<circle cx="126.682" cy="227.01" r="2.87855" transform="rotate(176.269 126.682 227.01)" fill="black"/>
<circle cx="111.362" cy="228.009" r="2.87855" transform="rotate(176.269 111.362 228.009)" fill="black"/>
<circle cx="96.0425" cy="229.008" r="2.87855" transform="rotate(176.269 96.0425 229.008)" fill="black"/>
<circle cx="80.7222" cy="230.007" r="2.87855" transform="rotate(176.269 80.7222 230.007)" fill="black"/>
<circle cx="65.4029" cy="231.006" r="2.87855" transform="rotate(176.269 65.4029 231.006)" fill="black"/>
<circle cx="50.0831" cy="232.005" r="2.87855" transform="rotate(176.269 50.0831 232.005)" fill="black"/>
<circle cx="34.7635" cy="233.004" r="2.87855" transform="rotate(176.269 34.7635 233.004)" fill="black"/>
<circle cx="19.4436" cy="234.003" r="2.87855" transform="rotate(176.269 19.4436 234.003)" fill="black"/>
<circle cx="4.12382" cy="235.002" r="2.87855" transform="rotate(176.269 4.12382 235.002)" fill="black"/>
<circle cx="158.383" cy="241.289" r="3.83806" transform="rotate(176.269 158.383 241.289)" fill="black"/>
<circle cx="143.063" cy="242.288" r="3.83806" transform="rotate(176.269 143.063 242.288)" fill="black"/>
<circle cx="127.743" cy="243.287" r="3.83806" transform="rotate(176.269 127.743 243.287)" fill="black"/>
<circle cx="112.423" cy="244.286" r="3.83806" transform="rotate(176.269 112.423 244.286)" fill="black"/>
<circle cx="97.1039" cy="245.285" r="3.83806" transform="rotate(176.269 97.1039 245.285)" fill="black"/>
<circle cx="81.7838" cy="246.284" r="3.83806" transform="rotate(176.269 81.7838 246.284)" fill="black"/>
<circle cx="66.4645" cy="247.283" r="3.83806" transform="rotate(176.269 66.4645 247.283)" fill="black"/>
<circle cx="51.1447" cy="248.282" r="3.83806" transform="rotate(176.269 51.1447 248.282)" fill="black"/>
<circle cx="35.8248" cy="249.281" r="3.83806" transform="rotate(176.269 35.8248 249.281)" fill="black"/>
<circle cx="20.5053" cy="250.28" r="3.83806" transform="rotate(176.269 20.5053 250.28)" fill="black"/>
<circle cx="5.18544" cy="251.279" r="3.83806" transform="rotate(176.269 5.18544 251.279)" fill="black"/>
<circle cx="159.444" cy="257.565" r="4.79758" transform="rotate(176.269 159.444 257.565)" fill="black"/>
<circle cx="144.124" cy="258.565" r="4.79758" transform="rotate(176.269 144.124 258.565)" fill="black"/>
<circle cx="128.804" cy="259.564" r="4.79758" transform="rotate(176.269 128.804 259.564)" fill="black"/>
<circle cx="113.485" cy="260.563" r="4.79758" transform="rotate(176.269 113.485 260.563)" fill="black"/>
<circle cx="98.1653" cy="261.562" r="4.79758" transform="rotate(176.269 98.1653 261.562)" fill="black"/>
<circle cx="82.8452" cy="262.561" r="4.79758" transform="rotate(176.269 82.8452 262.561)" fill="black"/>
<circle cx="67.5259" cy="263.561" r="4.79758" transform="rotate(176.269 67.5259 263.561)" fill="black"/>
<circle cx="52.206" cy="264.559" r="4.79758" transform="rotate(176.269 52.206 264.559)" fill="black"/>
<circle cx="36.8862" cy="265.558" r="4.79758" transform="rotate(176.269 36.8862 265.558)" fill="black"/>
<circle cx="21.5666" cy="266.557" r="4.79758" transform="rotate(176.269 21.5666 266.557)" fill="black"/>
<circle cx="6.24682" cy="267.556" r="4.79758" transform="rotate(176.269 6.24682 267.556)" fill="black"/>
<circle cx="160.506" cy="273.843" r="5.7571" transform="rotate(176.269 160.506 273.843)" fill="black"/>
<circle cx="145.186" cy="274.843" r="5.7571" transform="rotate(176.269 145.186 274.843)" fill="black"/>
<circle cx="129.867" cy="275.842" r="5.7571" transform="rotate(176.269 129.867 275.842)" fill="black"/>
<circle cx="114.547" cy="276.841" r="5.7571" transform="rotate(176.269 114.547 276.841)" fill="black"/>
<circle cx="99.2269" cy="277.839" r="5.7571" transform="rotate(176.269 99.2269 277.839)" fill="black"/>
<circle cx="83.9076" cy="278.839" r="5.7571" transform="rotate(176.269 83.9076 278.839)" fill="black"/>
<circle cx="68.5877" cy="279.838" r="5.7571" transform="rotate(176.269 68.5877 279.838)" fill="black"/>
<circle cx="53.2679" cy="280.837" r="5.7571" transform="rotate(176.269 53.2679 280.837)" fill="black"/>
<circle cx="37.9483" cy="281.836" r="5.7571" transform="rotate(176.269 37.9483 281.836)" fill="black"/>
<circle cx="22.6285" cy="282.835" r="5.7571" transform="rotate(176.269 22.6285 282.835)" fill="black"/>
<circle cx="7.30868" cy="283.834" r="5.7571" transform="rotate(176.269 7.30868 283.834)" fill="black"/>
<circle cx="161.567" cy="290.12" r="6.71661" transform="rotate(176.269 161.567 290.12)" fill="black"/>
<circle cx="146.247" cy="291.12" r="6.71661" transform="rotate(176.269 146.247 291.12)" fill="black"/>
<circle cx="130.928" cy="292.119" r="6.71661" transform="rotate(176.269 130.928 292.119)" fill="black"/>
<circle cx="115.608" cy="293.118" r="6.71661" transform="rotate(176.269 115.608 293.118)" fill="black"/>
<circle cx="100.289" cy="294.117" r="6.71661" transform="rotate(176.269 100.289 294.117)" fill="black"/>
<circle cx="84.9689" cy="295.116" r="6.71661" transform="rotate(176.269 84.9689 295.116)" fill="black"/>
<circle cx="69.6491" cy="296.115" r="6.71661" transform="rotate(176.269 69.6491 296.115)" fill="black"/>
<circle cx="54.3293" cy="297.114" r="6.71661" transform="rotate(176.269 54.3293 297.114)" fill="black"/>
<circle cx="39.0097" cy="298.113" r="6.71661" transform="rotate(176.269 39.0097 298.113)" fill="black"/>
<circle cx="23.6899" cy="299.112" r="6.71661" transform="rotate(176.269 23.6899 299.112)" fill="black"/>
<circle cx="8.37006" cy="300.111" r="6.71661" transform="rotate(176.269 8.37006 300.111)" fill="black"/>
<circle cx="-6.94952" cy="301.11" r="6.71661" transform="rotate(176.269 -6.94952 301.11)" fill="black"/>
<circle cx="162.629" cy="306.397" r="7.67613" transform="rotate(176.269 162.629 306.397)" fill="black"/>
<circle cx="147.309" cy="307.396" r="7.67613" transform="rotate(176.269 147.309 307.396)" fill="black"/>
<circle cx="131.989" cy="308.395" r="7.67613" transform="rotate(176.269 131.989 308.395)" fill="black"/>
<circle cx="116.669" cy="309.395" r="7.67613" transform="rotate(176.269 116.669 309.395)" fill="black"/>
<circle cx="101.35" cy="310.394" r="7.67613" transform="rotate(176.269 101.35 310.394)" fill="black"/>
<circle cx="86.0303" cy="311.393" r="7.67613" transform="rotate(176.269 86.0303 311.393)" fill="black"/>
<circle cx="70.7105" cy="312.392" r="7.67613" transform="rotate(176.269 70.7105 312.392)" fill="black"/>
<circle cx="55.3907" cy="313.391" r="7.67613" transform="rotate(176.269 55.3907 313.391)" fill="black"/>
<circle cx="40.0711" cy="314.39" r="7.67613" transform="rotate(176.269 40.0711 314.39)" fill="black"/>
<circle cx="24.7513" cy="315.389" r="7.67613" transform="rotate(176.269 24.7513 315.389)" fill="black"/>
<circle cx="9.43144" cy="316.388" r="7.67613" transform="rotate(176.269 9.43144 316.388)" fill="black"/>
<circle cx="-5.8879" cy="317.387" r="7.67613" transform="rotate(176.269 -5.8879 317.387)" fill="black"/>
</g>
<g opacity="0.12">
<circle cx="245.753" cy="410.469" r="0.699414" transform="rotate(-178.315 245.753 410.469)" fill="black"/>
<circle cx="111.566" cy="406.522" r="0.699414" transform="rotate(-178.315 111.566 406.522)" fill="black"/>
<circle cx="234.571" cy="410.14" r="0.699414" transform="rotate(-178.315 234.571 410.14)" fill="black"/>
<circle cx="100.384" cy="406.193" r="0.699414" transform="rotate(-178.315 100.384 406.193)" fill="black"/>
<circle cx="223.389" cy="409.811" r="0.699414" transform="rotate(-178.315 223.389 409.811)" fill="black"/>
<circle cx="89.2016" cy="405.864" r="0.699414" transform="rotate(-178.315 89.2016 405.864)" fill="black"/>
<circle cx="212.206" cy="409.482" r="0.699414" transform="rotate(-178.315 212.206 409.482)" fill="black"/>
<circle cx="201.024" cy="409.153" r="0.699414" transform="rotate(-178.315 201.024 409.153)" fill="black"/>
<circle cx="189.842" cy="408.824" r="0.699414" transform="rotate(-178.315 189.842 408.824)" fill="black"/>
<circle cx="178.66" cy="408.495" r="0.699414" transform="rotate(-178.315 178.66 408.495)" fill="black"/>
<circle cx="167.477" cy="408.166" r="0.699414" transform="rotate(-178.315 167.477 408.166)" fill="black"/>
<circle cx="156.296" cy="407.837" r="0.699414" transform="rotate(-178.315 156.296 407.837)" fill="black"/>
<circle cx="145.113" cy="407.508" r="0.699414" transform="rotate(-178.315 145.113 407.508)" fill="black"/>
<circle cx="133.931" cy="407.18" r="0.699414" transform="rotate(-178.315 133.931 407.18)" fill="black"/>
<circle cx="122.748" cy="406.851" r="0.699414" transform="rotate(-178.315 122.748 406.851)" fill="black"/>
<circle cx="245.404" cy="422.35" r="1.39838" transform="rotate(-178.315 245.404 422.35)" fill="black"/>
<circle cx="111.217" cy="418.403" r="1.39838" transform="rotate(-178.315 111.217 418.403)" fill="black"/>
<circle cx="234.222" cy="422.021" r="1.39838" transform="rotate(-178.315 234.222 422.021)" fill="black"/>
<circle cx="100.035" cy="418.074" r="1.39838" transform="rotate(-178.315 100.035 418.074)" fill="black"/>
<circle cx="223.04" cy="421.693" r="1.39838" transform="rotate(-178.315 223.04 421.693)" fill="black"/>
<circle cx="88.8528" cy="417.745" r="1.39838" transform="rotate(-178.315 88.8528 417.745)" fill="black"/>
<circle cx="211.857" cy="421.363" r="1.39838" transform="rotate(-178.315 211.857 421.363)" fill="black"/>
<circle cx="200.675" cy="421.034" r="1.39838" transform="rotate(-178.315 200.675 421.034)" fill="black"/>
<circle cx="189.493" cy="420.706" r="1.39838" transform="rotate(-178.315 189.493 420.706)" fill="black"/>
<circle cx="178.311" cy="420.376" r="1.39838" transform="rotate(-178.315 178.311 420.376)" fill="black"/>
<circle cx="167.128" cy="420.048" r="1.39838" transform="rotate(-178.315 167.128 420.048)" fill="black"/>
<circle cx="155.946" cy="419.719" r="1.39838" transform="rotate(-178.315 155.946 419.719)" fill="black"/>
<circle cx="144.764" cy="419.39" r="1.39838" transform="rotate(-178.315 144.764 419.39)" fill="black"/>
<circle cx="133.582" cy="419.061" r="1.39838" transform="rotate(-178.315 133.582 419.061)" fill="black"/>
<circle cx="122.399" cy="418.732" r="1.39838" transform="rotate(-178.315 122.399 418.732)" fill="black"/>
<circle cx="245.054" cy="434.231" r="2.09758" transform="rotate(-178.315 245.054 434.231)" fill="black"/>
<circle cx="110.867" cy="430.284" r="2.09758" transform="rotate(-178.315 110.867 430.284)" fill="black"/>
<circle cx="233.872" cy="433.903" r="2.09758" transform="rotate(-178.315 233.872 433.903)" fill="black"/>
<circle cx="99.685" cy="429.955" r="2.09758" transform="rotate(-178.315 99.685 429.955)" fill="black"/>
<circle cx="222.69" cy="433.574" r="2.09758" transform="rotate(-178.315 222.69 433.574)" fill="black"/>
<circle cx="88.5028" cy="429.627" r="2.09758" transform="rotate(-178.315 88.5028 429.627)" fill="black"/>
<circle cx="211.507" cy="433.245" r="2.09758" transform="rotate(-178.315 211.507 433.245)" fill="black"/>
<circle cx="200.326" cy="432.916" r="2.09758" transform="rotate(-178.315 200.326 432.916)" fill="black"/>
<circle cx="189.143" cy="432.587" r="2.09758" transform="rotate(-178.315 189.143 432.587)" fill="black"/>
<circle cx="177.961" cy="432.258" r="2.09758" transform="rotate(-178.315 177.961 432.258)" fill="black"/>
<circle cx="166.778" cy="431.929" r="2.09758" transform="rotate(-178.315 166.778 431.929)" fill="black"/>
<circle cx="155.597" cy="431.6" r="2.09758" transform="rotate(-178.315 155.597 431.6)" fill="black"/>
<circle cx="144.414" cy="431.271" r="2.09758" transform="rotate(-178.315 144.414 431.271)" fill="black"/>
<circle cx="133.232" cy="430.942" r="2.09758" transform="rotate(-178.315 133.232 430.942)" fill="black"/>
<circle cx="122.049" cy="430.613" r="2.09758" transform="rotate(-178.315 122.049 430.613)" fill="black"/>
<circle cx="244.705" cy="446.112" r="2.79677" transform="rotate(-178.315 244.705 446.112)" fill="black"/>
<circle cx="110.518" cy="442.165" r="2.79677" transform="rotate(-178.315 110.518 442.165)" fill="black"/>
<circle cx="233.523" cy="445.784" r="2.79677" transform="rotate(-178.315 233.523 445.784)" fill="black"/>
<circle cx="99.336" cy="441.836" r="2.79677" transform="rotate(-178.315 99.336 441.836)" fill="black"/>
<circle cx="222.341" cy="445.455" r="2.79677" transform="rotate(-178.315 222.341 445.455)" fill="black"/>
<circle cx="88.1536" cy="441.508" r="2.79677" transform="rotate(-178.315 88.1536 441.508)" fill="black"/>
<circle cx="211.158" cy="445.126" r="2.79677" transform="rotate(-178.315 211.158 445.126)" fill="black"/>
<circle cx="199.976" cy="444.797" r="2.79677" transform="rotate(-178.315 199.976 444.797)" fill="black"/>
<circle cx="188.794" cy="444.468" r="2.79677" transform="rotate(-178.315 188.794 444.468)" fill="black"/>
<circle cx="177.612" cy="444.139" r="2.79677" transform="rotate(-178.315 177.612 444.139)" fill="black"/>
<circle cx="166.429" cy="443.81" r="2.79677" transform="rotate(-178.315 166.429 443.81)" fill="black"/>
<circle cx="155.247" cy="443.481" r="2.79677" transform="rotate(-178.315 155.247 443.481)" fill="black"/>
<circle cx="144.065" cy="443.152" r="2.79677" transform="rotate(-178.315 144.065 443.152)" fill="black"/>
<circle cx="132.883" cy="442.823" r="2.79677" transform="rotate(-178.315 132.883 442.823)" fill="black"/>
<circle cx="121.7" cy="442.495" r="2.79677" transform="rotate(-178.315 121.7 442.495)" fill="black"/>
<circle cx="244.355" cy="457.993" r="3.49596" transform="rotate(-178.315 244.355 457.993)" fill="black"/>
<circle cx="110.168" cy="454.046" r="3.49596" transform="rotate(-178.315 110.168 454.046)" fill="black"/>
<circle cx="233.173" cy="457.665" r="3.49596" transform="rotate(-178.315 233.173 457.665)" fill="black"/>
<circle cx="98.986" cy="453.717" r="3.49596" transform="rotate(-178.315 98.986 453.717)" fill="black"/>
<circle cx="221.991" cy="457.336" r="3.49596" transform="rotate(-178.315 221.991 457.336)" fill="black"/>
<circle cx="87.8037" cy="453.389" r="3.49596" transform="rotate(-178.315 87.8037 453.389)" fill="black"/>
<circle cx="210.809" cy="457.007" r="3.49596" transform="rotate(-178.315 210.809 457.007)" fill="black"/>
<circle cx="199.626" cy="456.678" r="3.49596" transform="rotate(-178.315 199.626 456.678)" fill="black"/>
<circle cx="188.444" cy="456.349" r="3.49596" transform="rotate(-178.315 188.444 456.349)" fill="black"/>
<circle cx="177.262" cy="456.02" r="3.49596" transform="rotate(-178.315 177.262 456.02)" fill="black"/>
<circle cx="166.08" cy="455.691" r="3.49596" transform="rotate(-178.315 166.08 455.691)" fill="black"/>
<circle cx="154.897" cy="455.362" r="3.49596" transform="rotate(-178.315 154.897 455.362)" fill="black"/>
<circle cx="143.715" cy="455.033" r="3.49596" transform="rotate(-178.315 143.715 455.033)" fill="black"/>
<circle cx="132.533" cy="454.704" r="3.49596" transform="rotate(-178.315 132.533 454.704)" fill="black"/>
<circle cx="121.351" cy="454.376" r="3.49596" transform="rotate(-178.315 121.351 454.376)" fill="black"/>
<circle cx="244.006" cy="469.874" r="4.19515" transform="rotate(-178.315 244.006 469.874)" fill="black"/>
<circle cx="109.819" cy="465.927" r="4.19515" transform="rotate(-178.315 109.819 465.927)" fill="black"/>
<circle cx="232.824" cy="469.546" r="4.19515" transform="rotate(-178.315 232.824 469.546)" fill="black"/>
<circle cx="98.637" cy="465.599" r="4.19515" transform="rotate(-178.315 98.637 465.599)" fill="black"/>
<circle cx="221.642" cy="469.217" r="4.19515" transform="rotate(-178.315 221.642 469.217)" fill="black"/>
<circle cx="87.4544" cy="465.27" r="4.19515" transform="rotate(-178.315 87.4544 465.27)" fill="black"/>
<circle cx="210.459" cy="468.888" r="4.19515" transform="rotate(-178.315 210.459 468.888)" fill="black"/>
<circle cx="199.277" cy="468.559" r="4.19515" transform="rotate(-178.315 199.277 468.559)" fill="black"/>
<circle cx="188.095" cy="468.23" r="4.19515" transform="rotate(-178.315 188.095 468.23)" fill="black"/>
<circle cx="176.913" cy="467.902" r="4.19515" transform="rotate(-178.315 176.913 467.902)" fill="black"/>
<circle cx="165.731" cy="467.573" r="4.19515" transform="rotate(-178.315 165.731 467.573)" fill="black"/>
<circle cx="154.548" cy="467.243" r="4.19515" transform="rotate(-178.315 154.548 467.243)" fill="black"/>
<circle cx="143.366" cy="466.915" r="4.19515" transform="rotate(-178.315 143.366 466.915)" fill="black"/>
<circle cx="132.183" cy="466.586" r="4.19515" transform="rotate(-178.315 132.183 466.586)" fill="black"/>
<circle cx="121.002" cy="466.257" r="4.19515" transform="rotate(-178.315 121.002 466.257)" fill="black"/>
<circle cx="243.657" cy="481.756" r="4.89435" transform="rotate(-178.315 243.657 481.756)" fill="black"/>
<circle cx="109.47" cy="477.809" r="4.89435" transform="rotate(-178.315 109.47 477.809)" fill="black"/>
<circle cx="232.474" cy="481.427" r="4.89435" transform="rotate(-178.315 232.474 481.427)" fill="black"/>
<circle cx="98.2873" cy="477.48" r="4.89435" transform="rotate(-178.315 98.2873 477.48)" fill="black"/>
<circle cx="221.292" cy="481.098" r="4.89435" transform="rotate(-178.315 221.292 481.098)" fill="black"/>
<circle cx="87.1052" cy="477.151" r="4.89435" transform="rotate(-178.315 87.1052 477.151)" fill="black"/>
<circle cx="210.11" cy="480.769" r="4.89435" transform="rotate(-178.315 210.11 480.769)" fill="black"/>
<circle cx="198.928" cy="480.441" r="4.89435" transform="rotate(-178.315 198.928 480.441)" fill="black"/>
<circle cx="187.746" cy="480.111" r="4.89435" transform="rotate(-178.315 187.746 480.111)" fill="black"/>
<circle cx="176.563" cy="479.783" r="4.89435" transform="rotate(-178.315 176.563 479.783)" fill="black"/>
<circle cx="165.381" cy="479.454" r="4.89435" transform="rotate(-178.315 165.381 479.454)" fill="black"/>
<circle cx="154.199" cy="479.124" r="4.89435" transform="rotate(-178.315 154.199 479.124)" fill="black"/>
<circle cx="143.016" cy="478.796" r="4.89435" transform="rotate(-178.315 143.016 478.796)" fill="black"/>
<circle cx="131.834" cy="478.467" r="4.89435" transform="rotate(-178.315 131.834 478.467)" fill="black"/>
<circle cx="120.652" cy="478.138" r="4.89435" transform="rotate(-178.315 120.652 478.138)" fill="black"/>
<circle cx="243.307" cy="493.637" r="5.59354" transform="rotate(-178.315 243.307 493.637)" fill="black"/>
<circle cx="109.12" cy="489.69" r="5.59354" transform="rotate(-178.315 109.12 489.69)" fill="black"/>
<circle cx="232.125" cy="493.308" r="5.59354" transform="rotate(-178.315 232.125 493.308)" fill="black"/>
<circle cx="97.9381" cy="489.361" r="5.59354" transform="rotate(-178.315 97.9381 489.361)" fill="black"/>
<circle cx="220.942" cy="492.979" r="5.59354" transform="rotate(-178.315 220.942 492.979)" fill="black"/>
<circle cx="86.7557" cy="489.032" r="5.59354" transform="rotate(-178.315 86.7557 489.032)" fill="black"/>
<circle cx="209.76" cy="492.65" r="5.59354" transform="rotate(-178.315 209.76 492.65)" fill="black"/>
<circle cx="198.578" cy="492.322" r="5.59354" transform="rotate(-178.315 198.578 492.322)" fill="black"/>
<circle cx="187.396" cy="491.992" r="5.59354" transform="rotate(-178.315 187.396 491.992)" fill="black"/>
<circle cx="176.214" cy="491.663" r="5.59354" transform="rotate(-178.315 176.214 491.663)" fill="black"/>
<circle cx="165.031" cy="491.335" r="5.59354" transform="rotate(-178.315 165.031 491.335)" fill="black"/>
<circle cx="153.849" cy="491.006" r="5.59354" transform="rotate(-178.315 153.849 491.006)" fill="black"/>
<circle cx="142.667" cy="490.677" r="5.59354" transform="rotate(-178.315 142.667 490.677)" fill="black"/>
<circle cx="131.484" cy="490.348" r="5.59354" transform="rotate(-178.315 131.484 490.348)" fill="black"/>
<circle cx="120.303" cy="490.019" r="5.59354" transform="rotate(-178.315 120.303 490.019)" fill="black"/>
</g>
<g opacity="0.12">
<circle cx="212.486" cy="698.979" r="0.881634" transform="rotate(-20.3221 212.486 698.979)" fill="black"/>
<circle cx="371.173" cy="640.209" r="0.881634" transform="rotate(-20.3221 371.173 640.209)" fill="black"/>
<circle cx="225.71" cy="694.081" r="0.881634" transform="rotate(-20.3221 225.71 694.081)" fill="black"/>
<circle cx="384.397" cy="635.312" r="0.881634" transform="rotate(-20.3221 384.397 635.312)" fill="black"/>
<circle cx="238.934" cy="689.184" r="0.881634" transform="rotate(-20.3221 238.934 689.184)" fill="black"/>
<circle cx="252.158" cy="684.286" r="0.881634" transform="rotate(-20.3221 252.158 684.286)" fill="black"/>
<circle cx="265.382" cy="679.389" r="0.881634" transform="rotate(-20.3221 265.382 679.389)" fill="black"/>
<circle cx="278.605" cy="674.491" r="0.881634" transform="rotate(-20.3221 278.605 674.491)" fill="black"/>
<circle cx="291.83" cy="669.594" r="0.881634" transform="rotate(-20.3221 291.83 669.594)" fill="black"/>
<circle cx="305.054" cy="664.696" r="0.881634" transform="rotate(-20.3221 305.054 664.696)" fill="black"/>
<circle cx="318.277" cy="659.799" r="0.881634" transform="rotate(-20.3221 318.277 659.799)" fill="black"/>
<circle cx="331.502" cy="654.901" r="0.881634" transform="rotate(-20.3221 331.502 654.901)" fill="black"/>
<circle cx="344.725" cy="650.004" r="0.881634" transform="rotate(-20.3221 344.725 650.004)" fill="black"/>
<circle cx="357.949" cy="645.106" r="0.881634" transform="rotate(-20.3221 357.949 645.106)" fill="black"/>
<circle cx="207.282" cy="684.929" r="1.76271" transform="rotate(-20.3221 207.282 684.929)" fill="black"/>
<circle cx="365.97" cy="626.159" r="1.76271" transform="rotate(-20.3221 365.97 626.159)" fill="black"/>
<circle cx="220.506" cy="680.031" r="1.76271" transform="rotate(-20.3221 220.506 680.031)" fill="black"/>
<circle cx="379.193" cy="621.261" r="1.76271" transform="rotate(-20.3221 379.193 621.261)" fill="black"/>
<circle cx="233.73" cy="675.133" r="1.76271" transform="rotate(-20.3221 233.73 675.133)" fill="black"/>
<circle cx="392.417" cy="616.364" r="1.76271" transform="rotate(-20.3221 392.417 616.364)" fill="black"/>
<circle cx="246.954" cy="670.236" r="1.76271" transform="rotate(-20.3221 246.954 670.236)" fill="black"/>
<circle cx="260.178" cy="665.339" r="1.76271" transform="rotate(-20.3221 260.178 665.339)" fill="black"/>
<circle cx="273.402" cy="660.441" r="1.76271" transform="rotate(-20.3221 273.402 660.441)" fill="black"/>
<circle cx="286.625" cy="655.544" r="1.76271" transform="rotate(-20.3221 286.625 655.544)" fill="black"/>
<circle cx="299.85" cy="650.646" r="1.76271" transform="rotate(-20.3221 299.85 650.646)" fill="black"/>
<circle cx="313.073" cy="645.749" r="1.76271" transform="rotate(-20.3221 313.073 645.749)" fill="black"/>
<circle cx="326.297" cy="640.851" r="1.76271" transform="rotate(-20.3221 326.297 640.851)" fill="black"/>
<circle cx="339.522" cy="635.954" r="1.76271" transform="rotate(-20.3221 339.522 635.954)" fill="black"/>
<circle cx="352.746" cy="631.056" r="1.76271" transform="rotate(-20.3221 352.746 631.056)" fill="black"/>
<circle cx="202.079" cy="670.878" r="2.64407" transform="rotate(-20.3221 202.079 670.878)" fill="black"/>
<circle cx="360.765" cy="612.108" r="2.64407" transform="rotate(-20.3221 360.765 612.108)" fill="black"/>
<circle cx="215.303" cy="665.98" r="2.64407" transform="rotate(-20.3221 215.303 665.98)" fill="black"/>
<circle cx="373.99" cy="607.211" r="2.64407" transform="rotate(-20.3221 373.99 607.211)" fill="black"/>
<circle cx="228.526" cy="661.082" r="2.64407" transform="rotate(-20.3221 228.526 661.082)" fill="black"/>
<circle cx="387.213" cy="602.313" r="2.64407" transform="rotate(-20.3221 387.213 602.313)" fill="black"/>
<circle cx="241.75" cy="656.185" r="2.64407" transform="rotate(-20.3221 241.75 656.185)" fill="black"/>
<circle cx="254.974" cy="651.287" r="2.64407" transform="rotate(-20.3221 254.974 651.287)" fill="black"/>
<circle cx="268.198" cy="646.39" r="2.64407" transform="rotate(-20.3221 268.198 646.39)" fill="black"/>
<circle cx="281.422" cy="641.492" r="2.64407" transform="rotate(-20.3221 281.422 641.492)" fill="black"/>
<circle cx="294.646" cy="636.595" r="2.64407" transform="rotate(-20.3221 294.646 636.595)" fill="black"/>
<circle cx="307.87" cy="631.698" r="2.64407" transform="rotate(-20.3221 307.87 631.698)" fill="black"/>
<circle cx="321.094" cy="626.8" r="2.64407" transform="rotate(-20.3221 321.094 626.8)" fill="black"/>
<circle cx="334.318" cy="621.903" r="2.64407" transform="rotate(-20.3221 334.318 621.903)" fill="black"/>
<circle cx="347.542" cy="617.006" r="2.64407" transform="rotate(-20.3221 347.542 617.006)" fill="black"/>
<circle cx="196.875" cy="656.827" r="3.52542" transform="rotate(-20.3221 196.875 656.827)" fill="black"/>
<circle cx="355.562" cy="598.058" r="3.52542" transform="rotate(-20.3221 355.562 598.058)" fill="black"/>
<circle cx="210.099" cy="651.93" r="3.52542" transform="rotate(-20.3221 210.099 651.93)" fill="black"/>
<circle cx="368.786" cy="593.16" r="3.52542" transform="rotate(-20.3221 368.786 593.16)" fill="black"/>
<circle cx="223.322" cy="647.032" r="3.52542" transform="rotate(-20.3221 223.322 647.032)" fill="black"/>
<circle cx="382.01" cy="588.263" r="3.52542" transform="rotate(-20.3221 382.01 588.263)" fill="black"/>
<circle cx="236.546" cy="642.135" r="3.52542" transform="rotate(-20.3221 236.546 642.135)" fill="black"/>
<circle cx="249.77" cy="637.237" r="3.52542" transform="rotate(-20.3221 249.77 637.237)" fill="black"/>
<circle cx="262.994" cy="632.34" r="3.52542" transform="rotate(-20.3221 262.994 632.34)" fill="black"/>
<circle cx="276.218" cy="627.442" r="3.52542" transform="rotate(-20.3221 276.218 627.442)" fill="black"/>
<circle cx="289.442" cy="622.545" r="3.52542" transform="rotate(-20.3221 289.442 622.545)" fill="black"/>
<circle cx="302.666" cy="617.648" r="3.52542" transform="rotate(-20.3221 302.666 617.648)" fill="black"/>
<circle cx="315.89" cy="612.75" r="3.52542" transform="rotate(-20.3221 315.89 612.75)" fill="black"/>
<circle cx="329.115" cy="607.853" r="3.52542" transform="rotate(-20.3221 329.115 607.853)" fill="black"/>
<circle cx="342.338" cy="602.955" r="3.52542" transform="rotate(-20.3221 342.338 602.955)" fill="black"/>
<circle cx="191.671" cy="642.777" r="4.40678" transform="rotate(-20.3221 191.671 642.777)" fill="black"/>
<circle cx="350.358" cy="584.007" r="4.40678" transform="rotate(-20.3221 350.358 584.007)" fill="black"/>
<circle cx="204.895" cy="637.879" r="4.40678" transform="rotate(-20.3221 204.895 637.879)" fill="black"/>
<circle cx="363.583" cy="579.11" r="4.40678" transform="rotate(-20.3221 363.583 579.11)" fill="black"/>
<circle cx="218.12" cy="632.982" r="4.40678" transform="rotate(-20.3221 218.12 632.982)" fill="black"/>
<circle cx="376.806" cy="574.212" r="4.40678" transform="rotate(-20.3221 376.806 574.212)" fill="black"/>
<circle cx="231.343" cy="628.084" r="4.40678" transform="rotate(-20.3221 231.343 628.084)" fill="black"/>
<circle cx="244.567" cy="623.187" r="4.40678" transform="rotate(-20.3221 244.567 623.187)" fill="black"/>
<circle cx="257.791" cy="618.289" r="4.40678" transform="rotate(-20.3221 257.791 618.289)" fill="black"/>
<circle cx="271.015" cy="613.392" r="4.40678" transform="rotate(-20.3221 271.015 613.392)" fill="black"/>
<circle cx="284.239" cy="608.494" r="4.40678" transform="rotate(-20.3221 284.239 608.494)" fill="black"/>
<circle cx="297.463" cy="603.597" r="4.40678" transform="rotate(-20.3221 297.463 603.597)" fill="black"/>
<circle cx="310.687" cy="598.699" r="4.40678" transform="rotate(-20.3221 310.687 598.699)" fill="black"/>
<circle cx="323.91" cy="593.802" r="4.40678" transform="rotate(-20.3221 323.91 593.802)" fill="black"/>
<circle cx="337.135" cy="588.904" r="4.40678" transform="rotate(-20.3221 337.135 588.904)" fill="black"/>
<circle cx="186.468" cy="628.727" r="5.28813" transform="rotate(-20.3221 186.468 628.727)" fill="black"/>
<circle cx="345.155" cy="569.957" r="5.28813" transform="rotate(-20.3221 345.155 569.957)" fill="black"/>
<circle cx="199.691" cy="623.828" r="5.28813" transform="rotate(-20.3221 199.691 623.828)" fill="black"/>
<circle cx="358.379" cy="565.059" r="5.28813" transform="rotate(-20.3221 358.379 565.059)" fill="black"/>
<circle cx="212.915" cy="618.931" r="5.28813" transform="rotate(-20.3221 212.915 618.931)" fill="black"/>
<circle cx="371.602" cy="560.161" r="5.28813" transform="rotate(-20.3221 371.602 560.161)" fill="black"/>
<circle cx="226.139" cy="614.034" r="5.28813" transform="rotate(-20.3221 226.139 614.034)" fill="black"/>
<circle cx="239.363" cy="609.137" r="5.28813" transform="rotate(-20.3221 239.363 609.137)" fill="black"/>
<circle cx="252.587" cy="604.239" r="5.28813" transform="rotate(-20.3221 252.587 604.239)" fill="black"/>
<circle cx="265.81" cy="599.341" r="5.28813" transform="rotate(-20.3221 265.81 599.341)" fill="black"/>
<circle cx="279.035" cy="594.444" r="5.28813" transform="rotate(-20.3221 279.035 594.444)" fill="black"/>
<circle cx="292.258" cy="589.547" r="5.28813" transform="rotate(-20.3221 292.258 589.547)" fill="black"/>
<circle cx="305.483" cy="584.649" r="5.28813" transform="rotate(-20.3221 305.483 584.649)" fill="black"/>
<circle cx="318.706" cy="579.751" r="5.28813" transform="rotate(-20.3221 318.706 579.751)" fill="black"/>
<circle cx="331.93" cy="574.854" r="5.28813" transform="rotate(-20.3221 331.93 574.854)" fill="black"/>
<circle cx="181.264" cy="614.676" r="6.16949" transform="rotate(-20.3221 181.264 614.676)" fill="black"/>
<circle cx="339.952" cy="555.906" r="6.16949" transform="rotate(-20.3221 339.952 555.906)" fill="black"/>
<circle cx="194.488" cy="609.778" r="6.16949" transform="rotate(-20.3221 194.488 609.778)" fill="black"/>
<circle cx="353.176" cy="551.009" r="6.16949" transform="rotate(-20.3221 353.176 551.009)" fill="black"/>
<circle cx="207.712" cy="604.881" r="6.16949" transform="rotate(-20.3221 207.712 604.881)" fill="black"/>
<circle cx="366.399" cy="546.112" r="6.16949" transform="rotate(-20.3221 366.399 546.112)" fill="black"/>
<circle cx="220.936" cy="599.984" r="6.16949" transform="rotate(-20.3221 220.936 599.984)" fill="black"/>
<circle cx="234.159" cy="595.086" r="6.16949" transform="rotate(-20.3221 234.159 595.086)" fill="black"/>
<circle cx="247.384" cy="590.189" r="6.16949" transform="rotate(-20.3221 247.384 590.189)" fill="black"/>
<circle cx="260.608" cy="585.291" r="6.16949" transform="rotate(-20.3221 260.608 585.291)" fill="black"/>
<circle cx="273.831" cy="580.393" r="6.16949" transform="rotate(-20.3221 273.831 580.393)" fill="black"/>
<circle cx="287.055" cy="575.496" r="6.16949" transform="rotate(-20.3221 287.055 575.496)" fill="black"/>
<circle cx="300.28" cy="570.599" r="6.16949" transform="rotate(-20.3221 300.28 570.599)" fill="black"/>
<circle cx="313.504" cy="565.701" r="6.16949" transform="rotate(-20.3221 313.504 565.701)" fill="black"/>
<circle cx="326.727" cy="560.803" r="6.16949" transform="rotate(-20.3221 326.727 560.803)" fill="black"/>
<circle cx="176.061" cy="600.626" r="7.05084" transform="rotate(-20.3221 176.061 600.626)" fill="black"/>
<circle cx="334.748" cy="541.856" r="7.05084" transform="rotate(-20.3221 334.748 541.856)" fill="black"/>
<circle cx="189.285" cy="595.728" r="7.05084" transform="rotate(-20.3221 189.285 595.728)" fill="black"/>
<circle cx="347.972" cy="536.959" r="7.05084" transform="rotate(-20.3221 347.972 536.959)" fill="black"/>
<circle cx="202.509" cy="590.831" r="7.05084" transform="rotate(-20.3221 202.509 590.831)" fill="black"/>
<circle cx="361.196" cy="532.061" r="7.05084" transform="rotate(-20.3221 361.196 532.061)" fill="black"/>
<circle cx="215.732" cy="585.933" r="7.05084" transform="rotate(-20.3221 215.732 585.933)" fill="black"/>
<circle cx="228.956" cy="581.036" r="7.05084" transform="rotate(-20.3221 228.956 581.036)" fill="black"/>
<circle cx="242.18" cy="576.138" r="7.05084" transform="rotate(-20.3221 242.18 576.138)" fill="black"/>
<circle cx="255.404" cy="571.241" r="7.05084" transform="rotate(-20.3221 255.404 571.241)" fill="black"/>
<circle cx="268.628" cy="566.343" r="7.05084" transform="rotate(-20.3221 268.628 566.343)" fill="black"/>
<circle cx="281.852" cy="561.446" r="7.05084" transform="rotate(-20.3221 281.852 561.446)" fill="black"/>
<circle cx="295.076" cy="556.548" r="7.05084" transform="rotate(-20.3221 295.076 556.548)" fill="black"/>
<circle cx="308.3" cy="551.651" r="7.05084" transform="rotate(-20.3221 308.3 551.651)" fill="black"/>
<circle cx="321.524" cy="546.753" r="7.05084" transform="rotate(-20.3221 321.524 546.753)" fill="black"/>
</g>
</svg>
